<?xml version="1.0" encoding="UTF-8"?>
<svg width="20px" height="20px" viewBox="0 0 20 20" version="1.1" xmlns="http://www.w3.org/2000/svg" xmlns:xlink="http://www.w3.org/1999/xlink">
    <!-- Generator: Sketch 59.1 (86144) - https://sketch.com -->
    <title>icon_dong</title>
    <desc>Created with Sketch.</desc>
    <g id="icon_dong" stroke="none" stroke-width="1" fill="none" fill-rule="evenodd">
        <g id="xiaoqu" transform="translate(1.000000, 0.000000)" fill="#181818">
            <path d="M3.3994883,0.0127923977 L11.188962,0.0127923977 C11.7269737,0.0127923977 12.1597222,0.527412281 12.1597222,1.15899123 L12.1597222,5.80226608 L7.09539474,13.2993421 L9.63340643,13.2993421 L6.88486842,16.3987573 L11.0720029,16.3870614 L11.0720029,19.8958333 L2.42872807,19.8958333 L2.42872807,1.15899123 C2.42872807,0.527412281 2.86147661,0.0127923977 3.3994883,0.0127923977 Z M5.06030702,5.67361111 L5.06030702,6.80811404 L9.73866959,6.80811404 L9.73866959,5.67361111 L5.06030702,5.67361111 Z M5.06030702,3.70869883 L5.06030702,4.84320175 L9.73866959,4.84320175 L9.73866959,3.70869883 L5.06030702,3.70869883 Z M0.557383041,8.78472222 L2.42872807,8.78472222 L2.42872807,19.8841374 L0.019371345,19.8841374 L0.019371345,9.42799708 C0.019371345,9.06542398 0.26498538,8.78472222 0.557383041,8.78472222 Z" id="形状"></path>
            <polygon id="路径" points="8.56907895 12.9718567 12.8848684 6.32858187 17.2006579 12.9718567 17.1772661 13.0069444 14.6626462 13.0069444 17.2006579 15.7671784 17.1772661 15.8022661 13.5983187 15.8022661 13.5983187 19.8958333 11.8205409 19.8958333 11.8205409 15.8022661 8.58077485 15.8022661 8.56907895 15.7671784 11.0953947 13.0069444 8.58077485 13.0069444 8.56907895 12.9718567"></polygon>
        </g>
    </g>
</svg>